<?xml version="1.0" encoding="UTF-8" standalone="no"?>
<svg
   version="1.2"
   viewBox="0 0 561.28003 397"
   width="561.28003"
   height="397"
   id="svg14"
   sodipodi:docname="fondo002.svg"
   inkscape:version="1.2.2 (b0a8486541, 2022-12-01)"
   xmlns:inkscape="http://www.inkscape.org/namespaces/inkscape"
   xmlns:sodipodi="http://sodipodi.sourceforge.net/DTD/sodipodi-0.dtd"
   xmlns="http://www.w3.org/2000/svg"
   xmlns:svg="http://www.w3.org/2000/svg">
  <defs
     id="defs18" />
  <sodipodi:namedview
     id="namedview16"
     pagecolor="#505050"
     bordercolor="#ffffff"
     borderopacity="1"
     inkscape:showpageshadow="0"
     inkscape:pageopacity="0"
     inkscape:pagecheckerboard="1"
     inkscape:deskcolor="#505050"
     showgrid="false"
     inkscape:zoom="0.68024365"
     inkscape:cx="1218.681"
     inkscape:cy="434.40317"
     inkscape:window-width="2512"
     inkscape:window-height="1011"
     inkscape:window-x="0"
     inkscape:window-y="0"
     inkscape:window-maximized="1"
     inkscape:current-layer="svg14" />
  <style
     id="style2">
		.s0 { fill: #0d71b5 } 
		.s1 { fill: #37aae1 } 
		.s2 { fill: none;stroke: #f39200;stroke-miterlimit:22.926;stroke-width: 5.3 } 
		.s3 { fill: none;stroke: #ffffff;stroke-miterlimit:22.926;stroke-width: 5.3 } 
		.s4 { fill: none;stroke: #29235c;stroke-miterlimit:22.926;stroke-width: 5.3 } 
		.s5 { fill: #ffffff } 
		.s6 { fill: #29235c } 
	</style>
  <g
     id="g307"
     transform="matrix(0.50495812,0,0,0.48662099,-0.32177722,-0.01026758)">
    <path
       id="path64"
       class="s0"
       d="M 245.18,815.81 H 11.33 V 0 h 233.85 z" />
    <path
       id="path1256"
       class="s1"
       d="M 64.62,815.79 H -0.65 V -0.02 h 65.27 z" />
    <path
       id="path1260"
       class="s2"
       d="m 244.53,47.86 h 830.78 c 11.7,0 21.18,9.3 22.5,20.77 v 678.71 c -1.32,11.47 -10.8,20.77 -22.5,20.77 H 244.53" />
    <path
       id="path1264"
       class="s4"
       d="m 235.2,779.25 h 833.01 v -39.23 h 39.75 V 77.76 h -39.75 V 38.53 H 235.2" />
    <path
       id="path13550"
       class="s3"
       d="M 245.18,38.55 H 77 V 77.78 H 40.75 V 740.04 H 77 v 39.23 h 167.3" />
    <path
       id="path13554"
       class="s3"
       d="M 245.18,768.13 H 70.84 c -10.78,0 -19.53,-9.3 -19.53,-20.77 V 68.65 c 0,-11.47 8.75,-20.77 19.53,-20.77 h 174.34" />
    <path
       id="path13558"
       class="s5"
       d="m 71.7,64.39 c 0,3.55 -2.88,6.42 -6.42,6.42 -3.55,0 -6.43,-2.87 -6.43,-6.42 0,-3.55 2.88,-6.43 6.43,-6.43 3.54,0 6.42,2.88 6.42,6.43 z" />
    <path
       id="path13562"
       class="s5"
       d="m 71.7,751.91 c 0,3.54 -2.88,6.42 -6.42,6.42 -3.55,0 -6.43,-2.88 -6.43,-6.42 0,-3.55 2.88,-6.43 6.43,-6.43 3.54,0 6.42,2.88 6.42,6.43 z" />
    <path
       id="path13558-6"
       class="s6"
       d="m 1087.09,64.82 c 0,3.55 -2.87,6.42 -6.42,6.42 -3.55,0 -6.43,-2.87 -6.43,-6.42 0,-3.55 2.88,-6.42 6.43,-6.42 3.55,0 6.42,2.87 6.42,6.42 z" />
    <path
       id="path13558-6-9"
       class="s6"
       d="m 1087.56,752.11 c 0,3.55 -2.88,6.43 -6.43,6.43 -3.55,0 -6.42,-2.88 -6.42,-6.43 0,-3.55 2.87,-6.42 6.42,-6.42 3.55,0 6.43,2.87 6.43,6.42 z" />
  </g>
</svg>
